<svg xmlns="http://www.w3.org/2000/svg" viewBox="0 0 64 64" role="img" aria-label="Njara Rabearison">
  <rect width="64" height="64" rx="14" fill="#0D1117" />
  <path d="M13 47V17h7.2l15.6 19.8V17H43v30h-7.2L20.2 27.2V47H13Z" fill="#00D4FF" />
  <path d="M43.5 47 36 35.9h6.8L51 47h-7.5Z" fill="#7C3AED" />
  <path
    d="M34 17h12.5c6.2 0 10.2 3.6 10.2 9.2 0 5.7-4 9.4-10.2 9.4H34V30h12.1c2.6 0 4.1-1.4 4.1-3.7s-1.5-3.7-4.1-3.7H34V17Z"
    fill="#E5E7EB"
  />
  <rect x="6" y="6" width="52" height="52" rx="11" fill="none" stroke="#00D4FF" stroke-opacity=".28" />
</svg>
